<mxfile host="app.diagrams.net" modified="2024-05-13T05:41:00.470Z" agent="Mozilla/5.0 (Windows NT 10.0; Win64; x64) AppleWebKit/537.36 (KHTML, like Gecko) Chrome/124.0.0.0 Safari/537.36" etag="ny0v0dLR7uEcf3EIkm65" version="24.4.0" type="device">
  <diagram id="C5RBs43oDa-KdzZeNtuy" name="Page-1">
    <mxGraphModel dx="1370" dy="594" grid="1" gridSize="10" guides="1" tooltips="1" connect="1" arrows="1" fold="1" page="1" pageScale="1" pageWidth="827" pageHeight="1169" math="0" shadow="0">
      <root>
        <mxCell id="WIyWlLk6GJQsqaUBKTNV-0" />
        <mxCell id="WIyWlLk6GJQsqaUBKTNV-1" parent="WIyWlLk6GJQsqaUBKTNV-0" />
        <mxCell id="lsUWRDJeimvfey8Ce7Gq-0" value="Mensaje" style="whiteSpace=wrap;html=1;align=center;" vertex="1" parent="WIyWlLk6GJQsqaUBKTNV-1">
          <mxGeometry x="299" y="390" width="100" height="40" as="geometry" />
        </mxCell>
        <mxCell id="lsUWRDJeimvfey8Ce7Gq-1" value="Chat" style="whiteSpace=wrap;html=1;align=center;" vertex="1" parent="WIyWlLk6GJQsqaUBKTNV-1">
          <mxGeometry x="520" y="180" width="100" height="40" as="geometry" />
        </mxCell>
        <mxCell id="lsUWRDJeimvfey8Ce7Gq-2" value="Usuario" style="whiteSpace=wrap;html=1;align=center;" vertex="1" parent="WIyWlLk6GJQsqaUBKTNV-1">
          <mxGeometry x="80" y="180" width="100" height="40" as="geometry" />
        </mxCell>
        <mxCell id="lsUWRDJeimvfey8Ce7Gq-3" value="telefono" style="ellipse;whiteSpace=wrap;html=1;align=center;" vertex="1" parent="WIyWlLk6GJQsqaUBKTNV-1">
          <mxGeometry x="-30" y="100" width="100" height="40" as="geometry" />
        </mxCell>
        <mxCell id="lsUWRDJeimvfey8Ce7Gq-4" value="contrasenia" style="ellipse;whiteSpace=wrap;html=1;align=center;" vertex="1" parent="WIyWlLk6GJQsqaUBKTNV-1">
          <mxGeometry x="-60" y="140" width="100" height="40" as="geometry" />
        </mxCell>
        <mxCell id="lsUWRDJeimvfey8Ce7Gq-5" value="fecha_nacimiento" style="ellipse;whiteSpace=wrap;html=1;align=center;" vertex="1" parent="WIyWlLk6GJQsqaUBKTNV-1">
          <mxGeometry x="-70" y="180" width="100" height="40" as="geometry" />
        </mxCell>
        <mxCell id="lsUWRDJeimvfey8Ce7Gq-6" value="imagenPerfil" style="ellipse;whiteSpace=wrap;html=1;align=center;" vertex="1" parent="WIyWlLk6GJQsqaUBKTNV-1">
          <mxGeometry x="-70" y="220" width="100" height="40" as="geometry" />
        </mxCell>
        <mxCell id="lsUWRDJeimvfey8Ce7Gq-7" value="direccion" style="ellipse;whiteSpace=wrap;html=1;align=center;" vertex="1" parent="WIyWlLk6GJQsqaUBKTNV-1">
          <mxGeometry x="80" y="100" width="100" height="40" as="geometry" />
        </mxCell>
        <mxCell id="lsUWRDJeimvfey8Ce7Gq-8" value="sexo" style="ellipse;whiteSpace=wrap;html=1;align=center;" vertex="1" parent="WIyWlLk6GJQsqaUBKTNV-1">
          <mxGeometry x="-30" y="260" width="100" height="40" as="geometry" />
        </mxCell>
        <mxCell id="lsUWRDJeimvfey8Ce7Gq-12" value="" style="endArrow=none;html=1;rounded=0;" edge="1" parent="WIyWlLk6GJQsqaUBKTNV-1" source="lsUWRDJeimvfey8Ce7Gq-2" target="lsUWRDJeimvfey8Ce7Gq-7">
          <mxGeometry relative="1" as="geometry">
            <mxPoint x="70" y="260" as="sourcePoint" />
            <mxPoint x="230" y="260" as="targetPoint" />
          </mxGeometry>
        </mxCell>
        <mxCell id="lsUWRDJeimvfey8Ce7Gq-14" value="" style="endArrow=none;html=1;rounded=0;" edge="1" parent="WIyWlLk6GJQsqaUBKTNV-1" source="lsUWRDJeimvfey8Ce7Gq-2" target="lsUWRDJeimvfey8Ce7Gq-3">
          <mxGeometry relative="1" as="geometry">
            <mxPoint x="80" y="250" as="sourcePoint" />
            <mxPoint x="240" y="250" as="targetPoint" />
          </mxGeometry>
        </mxCell>
        <mxCell id="lsUWRDJeimvfey8Ce7Gq-15" value="" style="endArrow=none;html=1;rounded=0;" edge="1" parent="WIyWlLk6GJQsqaUBKTNV-1" source="lsUWRDJeimvfey8Ce7Gq-2" target="lsUWRDJeimvfey8Ce7Gq-4">
          <mxGeometry relative="1" as="geometry">
            <mxPoint x="90" y="260" as="sourcePoint" />
            <mxPoint x="250" y="260" as="targetPoint" />
          </mxGeometry>
        </mxCell>
        <mxCell id="lsUWRDJeimvfey8Ce7Gq-16" value="" style="endArrow=none;html=1;rounded=0;" edge="1" parent="WIyWlLk6GJQsqaUBKTNV-1" source="lsUWRDJeimvfey8Ce7Gq-2" target="lsUWRDJeimvfey8Ce7Gq-5">
          <mxGeometry relative="1" as="geometry">
            <mxPoint x="100" y="270" as="sourcePoint" />
            <mxPoint x="260" y="270" as="targetPoint" />
          </mxGeometry>
        </mxCell>
        <mxCell id="lsUWRDJeimvfey8Ce7Gq-17" value="" style="endArrow=none;html=1;rounded=0;" edge="1" parent="WIyWlLk6GJQsqaUBKTNV-1" source="lsUWRDJeimvfey8Ce7Gq-2" target="lsUWRDJeimvfey8Ce7Gq-6">
          <mxGeometry relative="1" as="geometry">
            <mxPoint x="110" y="280" as="sourcePoint" />
            <mxPoint x="270" y="280" as="targetPoint" />
          </mxGeometry>
        </mxCell>
        <mxCell id="lsUWRDJeimvfey8Ce7Gq-18" value="" style="endArrow=none;html=1;rounded=0;" edge="1" parent="WIyWlLk6GJQsqaUBKTNV-1" source="lsUWRDJeimvfey8Ce7Gq-2" target="lsUWRDJeimvfey8Ce7Gq-8">
          <mxGeometry relative="1" as="geometry">
            <mxPoint x="120" y="290" as="sourcePoint" />
            <mxPoint x="280" y="290" as="targetPoint" />
          </mxGeometry>
        </mxCell>
        <mxCell id="lsUWRDJeimvfey8Ce7Gq-19" value="calle" style="ellipse;whiteSpace=wrap;html=1;align=center;" vertex="1" parent="WIyWlLk6GJQsqaUBKTNV-1">
          <mxGeometry x="10" y="40" width="100" height="40" as="geometry" />
        </mxCell>
        <mxCell id="lsUWRDJeimvfey8Ce7Gq-21" value="numero" style="ellipse;whiteSpace=wrap;html=1;align=center;" vertex="1" parent="WIyWlLk6GJQsqaUBKTNV-1">
          <mxGeometry x="80" y="10" width="100" height="40" as="geometry" />
        </mxCell>
        <mxCell id="lsUWRDJeimvfey8Ce7Gq-22" value="colonia" style="ellipse;whiteSpace=wrap;html=1;align=center;" vertex="1" parent="WIyWlLk6GJQsqaUBKTNV-1">
          <mxGeometry x="160" y="40" width="100" height="40" as="geometry" />
        </mxCell>
        <mxCell id="lsUWRDJeimvfey8Ce7Gq-23" value="" style="endArrow=none;html=1;rounded=0;" edge="1" parent="WIyWlLk6GJQsqaUBKTNV-1" source="lsUWRDJeimvfey8Ce7Gq-7" target="lsUWRDJeimvfey8Ce7Gq-19">
          <mxGeometry relative="1" as="geometry">
            <mxPoint x="100" y="249.64" as="sourcePoint" />
            <mxPoint x="260" y="249.64" as="targetPoint" />
          </mxGeometry>
        </mxCell>
        <mxCell id="lsUWRDJeimvfey8Ce7Gq-24" value="" style="endArrow=none;html=1;rounded=0;" edge="1" parent="WIyWlLk6GJQsqaUBKTNV-1" source="lsUWRDJeimvfey8Ce7Gq-21" target="lsUWRDJeimvfey8Ce7Gq-7">
          <mxGeometry relative="1" as="geometry">
            <mxPoint x="110" y="259.64" as="sourcePoint" />
            <mxPoint x="270" y="259.64" as="targetPoint" />
          </mxGeometry>
        </mxCell>
        <mxCell id="lsUWRDJeimvfey8Ce7Gq-25" value="" style="endArrow=none;html=1;rounded=0;" edge="1" parent="WIyWlLk6GJQsqaUBKTNV-1" source="lsUWRDJeimvfey8Ce7Gq-22" target="lsUWRDJeimvfey8Ce7Gq-7">
          <mxGeometry relative="1" as="geometry">
            <mxPoint x="120" y="269.64" as="sourcePoint" />
            <mxPoint x="280" y="269.64" as="targetPoint" />
          </mxGeometry>
        </mxCell>
        <mxCell id="lsUWRDJeimvfey8Ce7Gq-26" value="participa" style="shape=rhombus;perimeter=rhombusPerimeter;whiteSpace=wrap;html=1;align=center;" vertex="1" parent="WIyWlLk6GJQsqaUBKTNV-1">
          <mxGeometry x="284" y="165" width="130" height="70" as="geometry" />
        </mxCell>
        <mxCell id="lsUWRDJeimvfey8Ce7Gq-27" value="" style="endArrow=none;html=1;rounded=0;" edge="1" parent="WIyWlLk6GJQsqaUBKTNV-1" source="lsUWRDJeimvfey8Ce7Gq-2" target="lsUWRDJeimvfey8Ce7Gq-26">
          <mxGeometry relative="1" as="geometry">
            <mxPoint x="90" y="300" as="sourcePoint" />
            <mxPoint x="210" y="350" as="targetPoint" />
          </mxGeometry>
        </mxCell>
        <mxCell id="lsUWRDJeimvfey8Ce7Gq-28" value="" style="endArrow=none;html=1;rounded=0;" edge="1" parent="WIyWlLk6GJQsqaUBKTNV-1" source="lsUWRDJeimvfey8Ce7Gq-1" target="lsUWRDJeimvfey8Ce7Gq-26">
          <mxGeometry relative="1" as="geometry">
            <mxPoint x="60" y="360" as="sourcePoint" />
            <mxPoint x="220" y="360" as="targetPoint" />
          </mxGeometry>
        </mxCell>
        <mxCell id="lsUWRDJeimvfey8Ce7Gq-29" value="nombre" style="ellipse;whiteSpace=wrap;html=1;align=center;" vertex="1" parent="WIyWlLk6GJQsqaUBKTNV-1">
          <mxGeometry x="520" y="110" width="100" height="40" as="geometry" />
        </mxCell>
        <mxCell id="lsUWRDJeimvfey8Ce7Gq-30" value="imagen_miniatura" style="ellipse;whiteSpace=wrap;html=1;align=center;" vertex="1" parent="WIyWlLk6GJQsqaUBKTNV-1">
          <mxGeometry x="650" y="180" width="100" height="40" as="geometry" />
        </mxCell>
        <mxCell id="lsUWRDJeimvfey8Ce7Gq-31" value="" style="endArrow=none;html=1;rounded=0;" edge="1" parent="WIyWlLk6GJQsqaUBKTNV-1" source="lsUWRDJeimvfey8Ce7Gq-29" target="lsUWRDJeimvfey8Ce7Gq-1">
          <mxGeometry relative="1" as="geometry">
            <mxPoint x="320" y="310" as="sourcePoint" />
            <mxPoint x="480" y="310" as="targetPoint" />
          </mxGeometry>
        </mxCell>
        <mxCell id="lsUWRDJeimvfey8Ce7Gq-32" value="" style="endArrow=none;html=1;rounded=0;" edge="1" parent="WIyWlLk6GJQsqaUBKTNV-1" source="lsUWRDJeimvfey8Ce7Gq-30" target="lsUWRDJeimvfey8Ce7Gq-1">
          <mxGeometry relative="1" as="geometry">
            <mxPoint x="330" y="320" as="sourcePoint" />
            <mxPoint x="490" y="320" as="targetPoint" />
          </mxGeometry>
        </mxCell>
        <mxCell id="lsUWRDJeimvfey8Ce7Gq-33" value="texto" style="ellipse;whiteSpace=wrap;html=1;align=center;" vertex="1" parent="WIyWlLk6GJQsqaUBKTNV-1">
          <mxGeometry x="184" y="390" width="100" height="40" as="geometry" />
        </mxCell>
        <mxCell id="lsUWRDJeimvfey8Ce7Gq-34" value="imagen" style="ellipse;whiteSpace=wrap;html=1;align=center;" vertex="1" parent="WIyWlLk6GJQsqaUBKTNV-1">
          <mxGeometry x="420" y="390" width="100" height="40" as="geometry" />
        </mxCell>
        <mxCell id="lsUWRDJeimvfey8Ce7Gq-35" value="fehaYhora" style="ellipse;whiteSpace=wrap;html=1;align=center;" vertex="1" parent="WIyWlLk6GJQsqaUBKTNV-1">
          <mxGeometry x="299" y="480" width="100" height="40" as="geometry" />
        </mxCell>
        <mxCell id="lsUWRDJeimvfey8Ce7Gq-37" value="" style="endArrow=none;html=1;rounded=0;" edge="1" parent="WIyWlLk6GJQsqaUBKTNV-1" source="lsUWRDJeimvfey8Ce7Gq-33" target="lsUWRDJeimvfey8Ce7Gq-0">
          <mxGeometry relative="1" as="geometry">
            <mxPoint x="240" y="290" as="sourcePoint" />
            <mxPoint x="400" y="290" as="targetPoint" />
          </mxGeometry>
        </mxCell>
        <mxCell id="lsUWRDJeimvfey8Ce7Gq-38" value="" style="endArrow=none;html=1;rounded=0;" edge="1" parent="WIyWlLk6GJQsqaUBKTNV-1" source="lsUWRDJeimvfey8Ce7Gq-0" target="lsUWRDJeimvfey8Ce7Gq-35">
          <mxGeometry relative="1" as="geometry">
            <mxPoint x="250" y="300" as="sourcePoint" />
            <mxPoint x="410" y="300" as="targetPoint" />
          </mxGeometry>
        </mxCell>
        <mxCell id="lsUWRDJeimvfey8Ce7Gq-39" value="" style="endArrow=none;html=1;rounded=0;" edge="1" parent="WIyWlLk6GJQsqaUBKTNV-1" source="lsUWRDJeimvfey8Ce7Gq-0" target="lsUWRDJeimvfey8Ce7Gq-34">
          <mxGeometry relative="1" as="geometry">
            <mxPoint x="260" y="310" as="sourcePoint" />
            <mxPoint x="420" y="310" as="targetPoint" />
          </mxGeometry>
        </mxCell>
        <mxCell id="lsUWRDJeimvfey8Ce7Gq-40" value="envia" style="shape=rhombus;perimeter=rhombusPerimeter;whiteSpace=wrap;html=1;align=center;" vertex="1" parent="WIyWlLk6GJQsqaUBKTNV-1">
          <mxGeometry x="110" y="270" width="130" height="70" as="geometry" />
        </mxCell>
        <mxCell id="lsUWRDJeimvfey8Ce7Gq-41" value="" style="endArrow=none;html=1;rounded=0;" edge="1" parent="WIyWlLk6GJQsqaUBKTNV-1" source="lsUWRDJeimvfey8Ce7Gq-2" target="lsUWRDJeimvfey8Ce7Gq-40">
          <mxGeometry relative="1" as="geometry">
            <mxPoint x="100" y="570" as="sourcePoint" />
            <mxPoint x="260" y="570" as="targetPoint" />
          </mxGeometry>
        </mxCell>
        <mxCell id="lsUWRDJeimvfey8Ce7Gq-42" value="" style="endArrow=none;html=1;rounded=0;" edge="1" parent="WIyWlLk6GJQsqaUBKTNV-1" source="lsUWRDJeimvfey8Ce7Gq-40" target="lsUWRDJeimvfey8Ce7Gq-33">
          <mxGeometry relative="1" as="geometry">
            <mxPoint x="110" y="580" as="sourcePoint" />
            <mxPoint x="270" y="580" as="targetPoint" />
          </mxGeometry>
        </mxCell>
        <mxCell id="lsUWRDJeimvfey8Ce7Gq-43" value="pertenece" style="shape=rhombus;perimeter=rhombusPerimeter;whiteSpace=wrap;html=1;align=center;" vertex="1" parent="WIyWlLk6GJQsqaUBKTNV-1">
          <mxGeometry x="440" y="270" width="130" height="70" as="geometry" />
        </mxCell>
        <mxCell id="lsUWRDJeimvfey8Ce7Gq-44" value="" style="endArrow=none;html=1;rounded=0;" edge="1" parent="WIyWlLk6GJQsqaUBKTNV-1" source="lsUWRDJeimvfey8Ce7Gq-43" target="lsUWRDJeimvfey8Ce7Gq-34">
          <mxGeometry relative="1" as="geometry">
            <mxPoint x="100" y="570" as="sourcePoint" />
            <mxPoint x="260" y="570" as="targetPoint" />
          </mxGeometry>
        </mxCell>
        <mxCell id="lsUWRDJeimvfey8Ce7Gq-45" value="" style="endArrow=none;html=1;rounded=0;" edge="1" parent="WIyWlLk6GJQsqaUBKTNV-1" source="lsUWRDJeimvfey8Ce7Gq-1" target="lsUWRDJeimvfey8Ce7Gq-43">
          <mxGeometry relative="1" as="geometry">
            <mxPoint x="100" y="570" as="sourcePoint" />
            <mxPoint x="260" y="570" as="targetPoint" />
          </mxGeometry>
        </mxCell>
      </root>
    </mxGraphModel>
  </diagram>
</mxfile>
